<?xml version="1.0" encoding="UTF-8"?>
<svg width="316px" height="254px" viewBox="0 0 316 254" version="1.1" xmlns="http://www.w3.org/2000/svg" xmlns:xlink="http://www.w3.org/1999/xlink">
    <!-- Generator: Sketch 52.3 (67297) - http://www.bohemiancoding.com/sketch -->
    <title>空状态</title>
    <desc>Created with Sketch.</desc>
    <defs>
        <linearGradient x1="53.5859641%" y1="20.1284587%" x2="54.5880834%" y2="249.454415%" id="linearGradient-1">
            <stop stop-color="#E4EDF5" offset="0%"></stop>
            <stop stop-color="#DBE4ED" offset="26%"></stop>
            <stop stop-color="#C2CDD9" offset="70%"></stop>
            <stop stop-color="#ADB8C7" offset="100%"></stop>
        </linearGradient>
        <linearGradient x1="52.3303511%" y1="-1.26522658%" x2="51.3304751%" y2="271.869343%" id="linearGradient-2">
            <stop stop-color="#E4EDF5" offset="0%"></stop>
            <stop stop-color="#DBE4ED" offset="26%"></stop>
            <stop stop-color="#C2CDD9" offset="70%"></stop>
            <stop stop-color="#ADB8C7" offset="100%"></stop>
        </linearGradient>
        <linearGradient x1="50.1379977%" y1="75.1655427%" x2="49.1379977%" y2="16.1637943%" id="linearGradient-3">
            <stop stop-color="#FFFFFF" stop-opacity="0" offset="0%"></stop>
            <stop stop-color="#FEFEFF" stop-opacity="0.03" offset="9%"></stop>
            <stop stop-color="#FBFCFD" stop-opacity="0.12" offset="23%"></stop>
            <stop stop-color="#F6F8FB" stop-opacity="0.27" offset="40%"></stop>
            <stop stop-color="#EFF3F9" stop-opacity="0.48" offset="59%"></stop>
            <stop stop-color="#E6ECF5" stop-opacity="0.73" offset="80%"></stop>
            <stop stop-color="#DDE5F2" offset="100%"></stop>
        </linearGradient>
        <linearGradient x1="90.1525722%" y1="95.6453983%" x2="-7.98223917%" y2="-16.5464229%" id="linearGradient-4">
            <stop stop-color="#E4EDF5" offset="0%"></stop>
            <stop stop-color="#C4CEDA" offset="53%"></stop>
            <stop stop-color="#ADB8C7" offset="96%"></stop>
        </linearGradient>
        <linearGradient x1="16.1171405%" y1="9.76002167%" x2="114.097784%" y2="121.737845%" id="linearGradient-5">
            <stop stop-color="#E4EDF5" offset="0%"></stop>
            <stop stop-color="#C4CEDA" offset="53%"></stop>
            <stop stop-color="#ADB8C7" offset="96%"></stop>
        </linearGradient>
        <linearGradient x1="-33.0588132%" y1="109.0667%" x2="82.9411506%" y2="-7.0640798%" id="linearGradient-6">
            <stop stop-color="#E4EDF5" offset="0%"></stop>
            <stop stop-color="#CBD5E0" offset="35%"></stop>
            <stop stop-color="#B5C0CE" offset="75%"></stop>
            <stop stop-color="#ADB8C7" offset="100%"></stop>
        </linearGradient>
        <linearGradient x1="-19.0921986%" y1="-2.71428571%" x2="-113.092199%" y2="82.8928571%" id="linearGradient-7">
            <stop stop-color="#C9D0D8" offset="0%"></stop>
            <stop stop-color="#99A3B0" offset="67%"></stop>
        </linearGradient>
        <radialGradient cx="74.2016807%" cy="42.484375%" fx="74.2016807%" fy="42.484375%" r="136.805398%" gradientTransform="translate(0.742017,0.424844),scale(0.985994,1.000000),translate(-0.742017,-0.424844)" id="radialGradient-8">
            <stop stop-color="#D1D8E0" offset="0%"></stop>
            <stop stop-color="#CBD2DC" offset="13%"></stop>
            <stop stop-color="#B5BFCD" offset="66%"></stop>
            <stop stop-color="#ADB8C7" offset="100%"></stop>
        </radialGradient>
        <linearGradient x1="122.469289%" y1="13.9324998%" x2="45.8089472%" y2="170.1725%" id="linearGradient-9">
            <stop stop-color="#E4EDF5" offset="0%"></stop>
            <stop stop-color="#DBE4ED" offset="17%"></stop>
            <stop stop-color="#C2CDD9" offset="44%"></stop>
            <stop stop-color="#ADB8C7" offset="64%"></stop>
        </linearGradient>
        <linearGradient x1="-88.1679633%" y1="55.9581478%" x2="104.342037%" y2="108.955777%" id="linearGradient-10">
            <stop stop-color="#E4EDF5" offset="0%"></stop>
            <stop stop-color="#DBE4ED" offset="19%"></stop>
            <stop stop-color="#C2CDD9" offset="51%"></stop>
            <stop stop-color="#ADB8C7" offset="73%"></stop>
        </linearGradient>
        <linearGradient x1="50.7131358%" y1="-19.4272656%" x2="43.7136253%" y2="110.537223%" id="linearGradient-11">
            <stop stop-color="#E4EDF5" offset="0%"></stop>
            <stop stop-color="#DBE4ED" offset="26%"></stop>
            <stop stop-color="#C2CDD9" offset="70%"></stop>
            <stop stop-color="#ADB8C7" offset="100%"></stop>
        </linearGradient>
    </defs>
    <g id="2019-03-28-IT服务管理-快速提单" stroke="none" stroke-width="1" fill="none" fill-rule="evenodd">
        <g id="IT服务管理-服务单" transform="translate(-680.000000, -315.000000)">
            <g id="空状态" transform="translate(670.000000, 314.000000)">
                <path d="M244.183333,90.6966667 L227.92,90.6966667 C227.185461,90.6966667 226.59,90.1012054 226.59,89.3666667 L226.59,88.8533333 C226.58374,88.4965701 226.721096,88.152254 226.971201,87.8977611 C227.221306,87.6432681 227.563182,87.4999451 227.92,87.5 L230.895,87.5 C231.716197,87.5289721 232.419661,86.9172644 232.505,86.1 C232.533688,85.6763089 232.390068,85.2589862 232.106714,84.9426835 C231.823359,84.6263809 231.424284,84.4379037 231,84.42 L200.538333,84.42 C199.983976,84.42 199.471729,84.7157459 199.19455,85.1958333 C198.917372,85.6759207 198.917372,86.2674127 199.19455,86.7475 C199.471729,87.2275874 199.983976,87.5233334 200.538333,87.5233333 L222.226667,87.5233333 C222.961205,87.5233333 223.556667,88.1187946 223.556667,88.8533333 L223.556667,89.3666667 C223.556667,90.1012054 222.961205,90.6966667 222.226667,90.6966667 L213.885,90.6966667 C213.061733,90.6618155 212.354804,91.2765364 212.275,92.0966667 C212.237765,92.5260858 212.386436,92.9508604 212.683333,93.2633333 C212.98075,93.5936441 213.405538,93.7805508 213.85,93.7766667 C214.584539,93.7766667 215.18,94.3721279 215.18,95.1066667 L215.18,95.3866667 C215.18,95.7394046 215.039875,96.0776953 214.790452,96.3271187 C214.541029,96.5765421 214.202738,96.7166667 213.85,96.7166667 L209.766667,96.7166667 C209.146557,96.706913 208.580199,97.0673472 208.326435,97.6332407 C208.072671,98.1991343 208.180248,98.8617811 208.6,99.3183333 C208.898626,99.6455831 209.323722,99.8283743 209.766667,99.82 L222.098333,99.82 C222.9216,99.8548512 223.628529,99.2401303 223.708333,98.42 C223.745692,97.9926773 223.601752,97.5693248 223.311667,97.2533333 C223.011622,96.9266758 222.588544,96.7405217 222.145,96.74 L219.578333,96.74 C219.211671,96.7625575 218.852008,96.632456 218.58463,96.3805459 C218.317252,96.1286359 218.165973,95.7773544 218.166667,95.41 L218.166667,95.13 C218.166667,94.3954613 218.762128,93.8 219.496667,93.8 L244.218333,93.8 C244.661878,93.7994783 245.084955,93.6133242 245.385,93.2866667 C245.675086,92.9706752 245.819026,92.5473227 245.781667,92.12 C245.713686,91.295246 245.010421,90.668981 244.183333,90.6966667 Z" id="路径" fill="url(#linearGradient-1)" opacity="0.32"></path>
                <path d="M98.2566667,158.351667 C99.0003274,158.354241 99.7111093,158.045389 100.216667,157.5 C100.932193,156.708259 101.10261,155.564413 100.648953,154.59848 C100.195296,153.632547 99.2062084,153.03327 98.14,153.078333 L41.1483333,153.078333 C39.7589773,153.061696 38.5787646,154.091244 38.4066667,155.47 C38.3340266,156.212581 38.5794057,156.951172 39.0819676,157.502656 C39.5845295,158.05414 40.2972164,158.366878 41.0433333,158.363333 L77.1283333,158.363333 C79.0807908,158.473298 80.6076909,160.088615 80.6076909,162.044167 C80.6076909,163.999718 79.0807908,165.615035 77.1283333,165.725 L68.2616667,165.725 C66.889886,165.699427 65.7140819,166.700111 65.52,168.058333 C65.4473599,168.800914 65.692739,169.539505 66.1953009,170.090989 C66.6978629,170.642473 67.4105498,170.955211 68.1566667,170.951667 L96.5533333,170.951667 C97.925114,170.97724 99.1009181,169.976556 99.295,168.618333 C99.3891894,167.867523 99.1547964,167.112589 98.6519368,166.547151 C98.1490773,165.981713 97.4266721,165.660782 96.67,165.666667 L89.7633333,165.666667 C87.8108759,165.556702 86.2839758,163.941385 86.2839758,161.985833 C86.2839758,160.030282 87.8108759,158.414965 89.7633333,158.305 L98.2566667,158.351667 Z" id="路径" fill="url(#linearGradient-2)" opacity="0.79"></path>
                <path d="M349.836667,272.09 L0,272.09 C34.3318814,207.337127 101.627047,166.848119 174.918333,166.848119 C248.20962,166.848119 315.504785,207.337127 349.836667,272.09 Z" id="路径" fill="url(#linearGradient-3)"></path>
                <polygon id="Rectangle-27-Copy-2" fill="#D5DAE3" points="168.023333 96.5533333 239.295 116.153333 239.33 184.765 168.058333 154.046667"></polygon>
                <polygon id="Rectangle-27-Copy-3" fill="#CDD1D9" points="168.023333 96.5533333 109.725 112.84 109.725 184.975 168.023333 153.743333"></polygon>
                <polygon id="Rectangle-27-Copy" fill="#D1D6DE" points="239.295 116.153333 180.541667 135.508333 180.541667 215.518333 239.295 185.021667"></polygon>
                <polygon id="Path-17-Copy" fill="#E1E4EA" points="239.295 116.153333 262.395 146.965 201.693333 170.916667 180.541667 135.508333"></polygon>
                <polygon id="Rectangle-27" fill="#E2E6F0" points="109.655 112.91 180.541667 135.52 180.541667 215.518333 109.561667 184.893333"></polygon>
                <polygon id="Path-17" fill="#EAEDF4" points="109.655 112.91 89.6933333 144.001667 160.02 170.986667 180.541667 135.52"></polygon>
                <path d="M238.221667,17.0216667 C238.439444,22.6061111 239.291111,26.1411111 240.776667,27.6266667 C242.212577,29.0625767 244.305461,29.6233634 246.266951,29.0977839 C248.22844,28.5722044 249.760538,27.0401067 250.286117,25.0786172 C250.811697,23.1171277 250.25091,21.0242433 248.815,19.5883333 C247.333333,18.1066667 243.833333,17.2433333 238.221667,17.0216667 Z" id="Oval-Copy" fill="url(#linearGradient-4)"></path>
                <path d="M234.628333,13.4283333 C234.395,7.86722222 233.527778,4.33222222 232.026667,2.82333333 C230.588673,1.38950743 228.494974,0.831758329 226.534248,1.36018471 C224.573521,1.8886111 223.043647,3.42293243 222.520914,5.38518471 C221.998182,7.347437 222.562006,9.43950743 224,10.8733333 C225.493333,12.3588889 229.036111,13.2105556 234.628333,13.4283333 Z" id="Oval-Copy-2" fill="url(#linearGradient-5)"></path>
                <path d="M239.166667,19.53 L238.898333,19.7633333 C238.825804,19.831846 238.747763,19.8942786 238.665,19.95 C237.828313,20.5586459 236.817931,20.8818048 235.783333,20.8716667 L232.47,20.8716667 C231.796333,20.4699576 231.231494,19.9091245 230.825,19.2383333 L230.825,15.925 C230.825948,14.8885006 231.147924,13.8777394 231.746667,13.0316667 L231.933333,12.7983333 C232.015,12.705 232.085,12.6116667 232.166667,12.53 C232.630655,12.0288836 233.195178,11.6313319 233.823333,11.3633333 C233.994459,11.2907099 234.169772,11.2283766 234.348333,11.1766667 C234.8128,11.0323131 235.296979,10.9614577 235.783333,10.9666667 L240.741667,10.9666667 L240.741667,15.9133333 C240.742209,16.3993617 240.671456,16.8828414 240.531667,17.3483333 C240.26836,18.1792298 239.798735,18.9298261 239.166667,19.53 Z" id="路径" fill="url(#linearGradient-6)"></path>
                <path d="M232.423333,20.8716667 L230.778333,20.8716667 L230.778333,19.2383333 C231.184827,19.9091245 231.749666,20.4699576 232.423333,20.8716667 Z" id="路径" fill="url(#linearGradient-7)"></path>
                <path d="M240.333333,17.8733333 C238.869872,17.2705308 237.541218,16.3821174 236.425,15.26 C235.294109,14.1510305 234.404418,12.8204666 233.811667,11.3516667 L234.325,11.165 C234.90692,12.5454245 235.75986,13.79508 236.833333,14.84 C237.876181,15.9212994 239.131346,16.7752882 240.52,17.3483333 C240.46829,17.5268951 240.405957,17.7022075 240.333333,17.8733333 Z" id="路径" fill="#DDE5F2"></path>
                <path d="M239.166667,19.53 L238.898333,19.7633333 C238.825804,19.831846 238.747763,19.8942786 238.665,19.95 C237.091535,19.3598509 235.668901,18.4273685 234.5,17.22 C233.287346,16.0440467 232.350923,14.6135115 231.758333,13.0316667 L231.945,12.7983333 C232.026667,12.705 232.096667,12.6116667 232.178333,12.53 C232.733133,14.1453131 233.664999,15.6051035 234.896667,16.7883333 C236.076863,18.0346624 237.542235,18.9755437 239.166667,19.53 Z" id="路径" fill="#DDE5F2"></path>
                <ellipse id="Oval-4" fill="url(#radialGradient-8)" cx="242.351667" cy="9.29833333" rx="4.165" ry="4.10666667"></ellipse>
                <path d="M245.63,7.7 C245.611416,7.65688472 245.612284,7.60785718 245.632382,7.56542667 C245.652481,7.52299617 245.689866,7.49126646 245.735,7.47833333 C247.671667,6.69666667 249.165,6.62666667 249.701667,7.28 C249.80473,7.4059562 249.865908,7.56094093 249.876667,7.72333333 C249.899591,7.7630398 249.899591,7.8119602 249.876667,7.85166667 C249.847248,7.88802614 249.805926,7.91281924 249.76,7.92166667 C249.66739,7.9286524 249.585453,7.86207839 249.573333,7.77 C249.559969,7.6753368 249.528266,7.58418995 249.48,7.50166667 C249.06,6.98833333 247.636667,7.09333333 245.886667,7.79333333 C245.840538,7.81687063 245.786703,7.82018672 245.738034,7.80248885 C245.689365,7.78479099 245.650236,7.74766991 245.63,7.7 Z" id="路径" fill="url(#linearGradient-9)"></path>
                <path d="M243.95,6.02 C243.914045,5.96297204 243.914045,5.89036129 243.95,5.83333333 C244.661667,4.08333333 244.731667,2.70666667 244.23,2.24 C244.15247,2.19014721 244.064776,2.15825835 243.973333,2.14666667 C243.935771,2.16102916 243.894229,2.16102916 243.856667,2.14666667 C243.839648,2.10155153 243.839648,2.0517818 243.856667,2.00666667 C243.874161,1.91927503 243.954539,1.85899121 244.043333,1.86666667 C244.199513,1.88034212 244.348887,1.93686212 244.475,2.03 C245.151667,2.59 245.081667,4.07166667 244.288333,6.02 C244.250916,6.10500168 244.153616,6.1459703 244.066667,6.11333333 L243.95,6.02 Z" id="路径" fill="url(#linearGradient-10)"></path>
                <g id="path" opacity="0.79" transform="translate(168.000000, 22.166667)" fill="url(#linearGradient-11)" fill-rule="nonzero">
                    <path d="M2.59,109.468333 C2.26253309,109.465324 1.97056761,109.261411 1.855,108.955 C1.59833333,108.173333 1.35333333,107.391667 1.14333333,106.621667 C1.06174526,106.346466 1.13286754,106.048641 1.33,105.84 C1.53023615,105.636912 1.82518795,105.559 2.09959716,105.636709 C2.37400636,105.714418 2.58431213,105.935412 2.64833333,106.213333 C2.84666667,106.948333 3.08,107.683333 3.325,108.395 C3.40098685,108.586055 3.40098685,108.798945 3.325,108.99 C3.23094827,109.179149 3.06818496,109.325219 2.87,109.398333 C2.78098473,109.436413 2.68646284,109.460044 2.59,109.468333 Z M1.12,103.401667 C0.726243308,103.416751 0.386542408,103.127752 0.338333333,102.736667 C0.233333333,101.955 0.151666667,101.173333 0.105,100.333333 C0.0850997713,99.9057952 0.412734967,99.5417561 0.84,99.5166667 C1.04721131,99.5050776 1.25122384,99.5716939 1.41166667,99.7033333 C1.56531387,99.8457494 1.65738829,100.042454 1.66833333,100.251667 C1.66833333,101.033333 1.785,101.815 1.89,102.526667 C1.91643165,102.732453 1.85996558,102.940305 1.73304212,103.10443 C1.60611866,103.268556 1.41915187,103.375487 1.21333333,103.401667 L1.12,103.401667 Z M0.921666667,97.16 C0.716743139,97.1366026 0.526672021,97.0415671 0.385,96.8916667 C0.254361484,96.730677 0.187874968,96.5270621 0.198333333,96.32 C0.198333333,95.5383333 0.338333333,94.7216667 0.455,93.9866667 C0.520963382,93.5558851 0.922064786,93.2589658 1.35333333,93.3216667 C1.5593389,93.350546 1.74533616,93.4603479 1.87014815,93.6267639 C1.99496013,93.7931799 2.04829072,94.0024818 2.01833333,94.2083333 C1.91333333,94.99 1.82,95.725 1.77333333,96.5416667 C1.77646254,96.7491905 1.69170777,96.9483642 1.54,97.09 C1.39117092,97.2368553 1.18902023,97.3168733 0.98,97.3116667 L0.921666667,97.16 Z M1.94833333,91 C1.8827272,91.0115559 1.81560614,91.0115559 1.75,91 C1.55098185,90.9434159 1.38034569,90.8143983 1.27166667,90.6383333 C1.16438133,90.4551795 1.13496675,90.2366711 1.19,90.0316667 C1.38833333,89.2616667 1.62166667,88.48 1.87833333,87.6983333 C1.96879079,87.4373149 2.19030402,87.2434263 2.46100197,87.1883285 C2.73169992,87.1332307 3.01137769,87.225107 3.19666667,87.43 C3.37940862,87.6371099 3.44127739,87.9243578 3.36,88.1883333 C3.115,88.9233333 2.89333333,89.6583333 2.70666667,90.3933333 C2.62463622,90.7449208 2.30934162,90.9923058 1.94833333,90.9883333 L1.94833333,91 Z M26.6933333,85.1666667 C26.075,85.1666667 25.4566667,85.1666667 24.8383333,85.0733333 C24.4066308,85.0314517 24.0906185,84.6475359 24.1325001,84.2158333 C24.1743817,83.7841308 24.5582975,83.4681185 24.99,83.51 C25.7338354,83.5896091 26.4823422,83.6168984 27.23,83.5916667 C27.6617026,83.5916667 28.0116667,83.9416308 28.0116667,84.3733333 C28.0116667,84.8050359 27.6617026,85.155 27.23,85.155 L26.6933333,85.1666667 Z M4.03666667,85.1666667 C3.92777777,85.1669548 3.82018516,85.1430453 3.72166667,85.0966667 C3.32855607,84.9165059 3.15213887,84.454708 3.325,84.0583333 C3.65166667,83.335 4.01333333,82.6116667 4.375,81.9116667 C4.49090644,81.6421809 4.7479419,81.4602793 5.04063574,81.4406024 C5.33332958,81.4209255 5.61239949,81.5667864 5.76333333,81.8183333 C5.91420755,82.0696507 5.91420755,82.3836826 5.76333333,82.635 C5.40166667,83.3116667 5.075,84.0116667 4.74833333,84.7 C4.62981853,84.9921566 4.35166007,85.1882355 4.03666667,85.2016667 L4.03666667,85.1666667 Z M31.115,84.6183333 C30.9061237,84.6447395 30.6953171,84.5870345 30.5290101,84.4579277 C30.362703,84.3288209 30.2545362,84.1389019 30.2283333,83.93 C30.2019017,83.7242137 30.2583678,83.5163615 30.3852912,83.3522363 C30.5122147,83.1881112 30.6991815,83.0811795 30.905,83.055 C31.6226954,82.8447078 32.3244762,82.5834894 33.005,82.2733333 C33.2563174,82.1224591 33.5703493,82.1224591 33.8216667,82.2733333 C34.066411,82.4375865 34.1938066,82.7287766 34.1483333,83.02 C34.1151912,83.3149476 33.9154786,83.5645883 33.635,83.6616667 C32.8791358,83.9960031 32.0991492,84.2728984 31.3016667,84.49 L31.1266667,84.6183333 L31.115,84.6183333 Z M21.0583333,84.4433333 L20.8483333,84.4433333 C20.0578249,84.2224448 19.2790441,83.9615532 18.515,83.6616667 C18.1164152,83.4995489 17.9197296,83.0492423 18.0716667,82.6466667 C18.1471424,82.4530164 18.2966328,82.2973978 18.4870961,82.2142069 C18.6775595,82.131016 18.8933121,82.1271032 19.0866667,82.2033333 C19.7895639,82.4771576 20.5060636,82.7146929 21.2333333,82.915 C21.4391519,82.9411795 21.6261187,83.0481112 21.7530421,83.2122363 C21.8799656,83.3763615 21.9364316,83.5842137 21.91,83.79 C21.8495306,84.2216491 21.4564981,84.5267664 21.0233333,84.4783333 L21.0583333,84.4433333 Z M15.3416667,81.9933333 C15.1974826,81.9922742 15.0563133,81.9519402 14.9333333,81.8766667 C14.2391802,81.455736 13.5692348,80.9961223 12.9266667,80.5 C12.581949,80.2390454 12.5140455,79.7480511 12.7750001,79.4033334 C13.0359546,79.0586157 13.5269489,78.9907122 13.8716667,79.2516667 C14.4716477,79.7073166 15.094695,80.1317675 15.7383333,80.5233333 C15.9240696,80.6266875 16.0559677,80.8053882 16.1,81.0133333 C16.1446486,81.2163519 16.1113333,81.4287367 16.0066667,81.6083333 C15.8663506,81.8298607 15.6269286,81.9691608 15.365,81.9816667 L15.3416667,81.9933333 Z M36.6216667,81.8416667 C36.3824579,81.8411436 36.155872,81.7342635 36.0033333,81.55 C35.7364605,81.2115769 35.7938688,80.720997 36.1316667,80.4533333 C36.7108285,79.9907045 37.253028,79.4836114 37.7533333,78.9366667 C38.0545704,78.6522092 38.5254296,78.6522092 38.8266667,78.9366667 C39.1295775,79.2184264 39.1651275,79.685654 38.9083333,80.01 C38.351656,80.6063147 37.7510864,81.1600867 37.1116667,81.6666667 C36.9932823,81.7672745 36.8464635,81.828449 36.6916667,81.8416667 L36.6216667,81.8416667 Z M7,79.66 C6.85159922,79.6630535 6.70556506,79.6224884 6.58,79.5433333 C6.40347087,79.4323446 6.2777367,79.2563167 6.23,79.0533333 C6.19109423,78.8473773 6.23286492,78.6343467 6.34666667,78.4583333 C6.77833333,77.7933333 7.22166667,77.1283333 7.68833333,76.4866667 C7.91284539,76.1700837 8.33787843,76.0700759 8.68,76.2533333 L8.4,75.8916667 C8.27437848,75.7262397 8.21976694,75.5176151 8.24822309,75.3118553 C8.27667923,75.1060955 8.38586264,74.9201235 8.55166667,74.795 C8.71520887,74.670003 8.92199004,74.6156904 9.12584846,74.6441867 C9.32970687,74.672683 9.51366879,74.7816157 9.63666667,74.9466667 C10.1033333,75.5533333 10.5933333,76.1133333 11.095,76.685 C11.3944546,76.989229 11.3944546,77.4774377 11.095,77.7816667 C10.9421589,77.9284706 10.7348611,78.0046208 10.5233333,77.9916667 C10.3118197,77.9903982 10.111459,77.8966123 9.975,77.735 C9.68333333,77.42 9.39166667,77.0816667 9.11166667,76.7433333 C9.16875364,76.9730867 9.12181369,77.216321 8.98333333,77.4083333 C8.54,78.0266667 8.10833333,78.6566667 7.7,79.2983333 C7.54893289,79.5362712 7.28147226,79.6744592 7,79.66 Z M40.5066667,77 C40.3887551,77.0022106 40.272253,76.9740894 40.1683333,76.9183333 C39.7961322,76.7305366 39.6409913,76.2806277 39.8183333,75.9033333 C40.1402647,75.2451702 40.3981196,74.5575572 40.5883333,73.85 C40.6978699,73.4311841 41.1261841,73.1804637 41.545,73.2900001 C41.9638158,73.3995366 42.2145364,73.8278508 42.105,74.2466667 C41.895343,75.0511594 41.6061399,75.8327892 41.2416667,76.58 C41.1027569,76.8416902 40.8260243,77.0004712 40.53,76.9883333 L40.5066667,77 Z M10.7216667,74.6666667 C10.3224746,74.6570316 9.99265568,74.352199 9.95166667,73.955 C9.94007759,73.7477887 10.0066939,73.5437762 10.1383333,73.3833333 C10.6516667,72.7766667 11.1883333,72.2166667 11.7016667,71.61 C12.0012779,71.3328123 12.4637221,71.3328123 12.7633333,71.61 C13.0626667,71.8949343 13.0931233,72.3619345 12.8333333,72.6833333 C12.3083333,73.2316667 11.7833333,73.85 11.27,74.3983333 C11.1429407,74.5659634 10.9536846,74.6753113 10.745,74.7016667 L10.7216667,74.6666667 Z M6.93,72.9166667 C6.63950354,72.9189861 6.37097146,72.7623424 6.23,72.5083333 C5.86833333,71.8083333 5.51833333,71.0733333 5.20333333,70.3266667 C5.08855155,70.0664903 5.12180413,69.7647795 5.29049246,69.5358453 C5.45918078,69.3069112 5.73749943,69.1857753 6.02,69.2183333 C6.30438499,69.2551934 6.54365364,69.4493171 6.63833333,69.72 C6.94166667,70.42 7.26833333,71.12 7.61833333,71.7733333 C7.81565666,72.1537071 7.66995364,72.6220383 7.29166667,72.8233333 C7.19089686,72.8927857 7.07481451,72.936817 6.95333333,72.9516667 L6.93,72.9166667 Z M41.6383333,70.9216667 C41.2366114,70.9238646 40.8986322,70.6211966 40.8566667,70.2216667 C40.7759254,69.5005293 40.6235053,68.7892355 40.4016667,68.0983333 C40.2868814,67.8293062 40.3318961,67.518705 40.5183333,67.2933333 C40.7099307,67.0751762 41.0041611,66.9770994 41.2883333,67.0366667 C41.5743832,67.0954446 41.801267,67.313253 41.8716667,67.5966667 C42.1372459,68.3958964 42.3171448,69.2210848 42.4083333,70.0583333 C42.4489996,70.4864437 42.1362154,70.8669978 41.7083333,70.91 L41.6383333,70.9216667 Z M15.0733333,70.1983333 C14.748188,70.2002898 14.4557872,70.0007612 14.3390647,69.6972828 C14.2223422,69.3938044 14.3056773,69.049762 14.5483333,68.8333333 C15.1433333,68.3083333 15.715,67.795 16.38,67.27 C16.540639,67.1424729 16.7455187,67.0843054 16.9492039,67.1083972 C17.1528891,67.132489 17.3385451,67.2368488 17.465,67.3983333 C17.7345742,67.7336936 17.6824289,68.2238599 17.3483333,68.495 C16.7533333,68.9733333 16.1816667,69.475 15.5866667,69.9766667 C15.4694164,70.1184608 15.3025379,70.210244 15.12,70.2333333 L15.0733333,70.1983333 Z M4.66666667,67.025 C4.30187738,67.0368934 3.97741383,66.7947564 3.885,66.4416667 C3.68666667,65.66 3.52333333,64.8783333 3.38333333,64.1083333 C3.33506108,63.8305476 3.44247265,63.5485922 3.66333333,63.3733333 C3.8801031,63.1902365 4.17815686,63.1368538 4.445,63.2333333 C4.70681609,63.3402866 4.89596908,63.5734286 4.94666667,63.8516667 C5.075,64.6216667 5.23833333,65.3333333 5.425,66.0683333 C5.52842849,66.4835096 5.27884158,66.9046875 4.865,67.0133333 L4.725,67.1066667 L4.66666667,67.025 Z M20.0433333,66.3133333 C19.7789357,66.3206195 19.5304142,66.1874829 19.39,65.9633333 C19.2760182,65.7917032 19.2380202,65.5806032 19.285,65.38 C19.3232876,65.1730779 19.4458352,64.9913693 19.6233333,64.8783333 C20.3,64.4466667 20.9883333,64.0266667 21.6766667,63.6416667 C21.8573763,63.5366946 22.0725958,63.5084571 22.2742683,63.5632595 C22.4759408,63.6180618 22.6472702,63.7513397 22.75,63.9333333 C22.9618518,64.3107711 22.832073,64.788357 22.4583333,65.0066667 C21.7933333,65.3683333 21.14,65.7883333 20.4866667,66.1733333 C20.377851,66.2696412 20.2446738,66.334212 20.1016667,66.36 L20.0433333,66.3133333 Z M39.2583333,65.1466667 C39.0167918,65.1449606 38.7891851,65.0333045 38.64,64.8433333 L38.3716667,64.5166667 C37.9991629,64.079432 37.5762214,63.6878196 37.1116667,63.35 C36.757284,63.0987104 36.6737104,62.607716 36.925,62.2533333 C37.1762896,61.8989506 37.667284,61.8153771 38.0216667,62.0666667 C38.579476,62.4732341 39.0918752,62.9386959 39.55,63.455 L39.865,63.84 C40.05035,64.076204 40.0864742,64.3968065 39.9583333,64.6683333 C39.8421924,64.965885 39.5544048,65.1608379 39.235,65.1583333 L39.2583333,65.1466667 Z M25.5733333,63.3966667 C25.2028284,63.389128 24.888537,63.1224647 24.8207547,62.7581348 C24.7529724,62.3938049 24.9503304,62.031951 25.2933333,61.8916667 C26.04,61.6 26.7983333,61.3316667 27.6266667,61.11 C27.8262011,61.0506793 28.0413475,61.0759907 28.2216667,61.18 C28.4981546,61.3332589 28.6551114,61.6379663 28.6193608,61.9520614 C28.5836101,62.2661565 28.3621909,62.5277967 28.0583333,62.615 C27.3296416,62.8198102 26.6129681,63.0651929 25.9116667,63.35 C25.8401556,63.40033 25.7615039,63.4396558 25.6783333,63.4666667 L25.5733333,63.3966667 Z M33.9733333,62.1016667 L33.8333333,62.1016667 C33.285002,62.0183504 32.7312876,61.9754571 32.1766667,61.9733333 L31.64,61.9733333 C31.3432438,62.0208431 31.0455285,61.8940091 30.8742075,61.6470869 C30.7028865,61.4001648 30.6883026,61.0768868 30.8366942,60.8155416 C30.9850858,60.5541963 31.2701714,60.4010705 31.57,60.4216667 L32.2,60.4216667 C32.8250423,60.4160535 33.449454,60.4628844 34.0666667,60.5616667 C34.5007161,60.598806 34.823618,60.978997 34.79,61.4133333 C34.7752118,61.6199789 34.6777759,61.8119472 34.5197054,61.9458681 C34.3616348,62.079789 34.1562673,62.1443625 33.95,62.125 L33.9733333,62.1016667 Z M3.76833333,60.8416667 C3.33663075,60.8416667 2.98666667,60.4917026 2.98666667,60.06 L2.98666667,57.6683333 C2.99270496,57.4619835 3.08134911,57.2667004 3.23270376,57.1263134 C3.38405842,56.9859265 3.5854459,56.9121948 3.79166667,56.9216667 C4.22528369,56.9406149 4.56317942,57.3045027 4.55,57.7383333 L4.55,60.0716667 C4.55,60.5033692 4.20003591,60.8533333 3.76833333,60.8533333 L3.76833333,60.8416667 Z M4.15333333,54.6 L4.025,54.6 C3.59894698,54.5284008 3.30851226,54.1290531 3.37166667,53.7016667 C3.37166667,53.41 3.47666667,53.1183333 3.535,52.8266667 C3.62833333,52.325 3.72166667,51.835 3.83833333,51.3566667 C3.88600216,51.0642871 4.08618284,50.8196218 4.36333333,50.715 C4.64523955,50.6191613 4.9571112,50.6918041 5.16765355,50.9023464 C5.37819591,51.1128888 5.45083867,51.4247605 5.355,51.7066667 C5.26166667,52.1733333 5.15666667,52.64 5.075,53.1066667 C4.99333333,53.5733333 4.97,53.6783333 4.92333333,53.9466667 C4.90094802,54.3385219 4.59144689,54.6530149 4.2,54.6816667 L4.15333333,54.6 Z M5.65833333,48.545 C5.57708191,48.5566468 5.49458475,48.5566468 5.41333333,48.545 C5.00864652,48.4018576 4.79510765,47.9591551 4.935,47.5533333 C5.18,46.8066667 5.44833333,46.06 5.75166667,45.3133333 C5.83349675,45.1224759 5.98312236,44.968694 6.17166667,44.8816667 C6.46291189,44.7594359 6.79909819,44.8244966 7.0237137,45.0465597 C7.24832921,45.2686228 7.31722767,45.6040436 7.19833333,45.8966667 C6.91833333,46.6083333 6.65,47.3433333 6.41666667,48.0433333 C6.33577048,48.3697868 6.05235625,48.6059653 5.71666667,48.6266667 L5.65833333,48.545 Z M8.085,42.7933333 C7.96282079,42.8013652 7.84100751,42.7729421 7.735,42.7116667 C7.3531343,42.5142892 7.1979339,42.048688 7.385,41.6616667 C7.74666667,40.9616667 8.12,40.2616667 8.55166667,39.5616667 C8.69137009,39.3200879 8.94926819,39.1713119 9.22833333,39.1713119 C9.50739848,39.1713119 9.76529657,39.3200879 9.905,39.5616667 C10.0446313,39.8035152 10.0446313,40.1014848 9.905,40.3433333 C9.53166667,41.02 9.17,41.6966667 8.82,42.3733333 C8.7229216,42.653812 8.4732809,42.8535245 8.17833333,42.8866667 L8.085,42.7933333 Z M11.2116667,37.4033333 C11.0571158,37.4130655 10.9041325,37.367584 10.78,37.275 C10.5901346,37.1704807 10.4521874,36.9918229 10.3991017,36.7816919 C10.346016,36.5715609 10.3825576,36.3488216 10.5,36.1666667 C10.9433333,35.5016667 11.3983333,34.86 11.8533333,34.2183333 C11.9727903,34.0496489 12.1550506,33.9360751 12.3591121,33.9031619 C12.5631737,33.8702488 12.7718994,33.9207604 12.9383333,34.0433333 C13.1474827,34.1408542 13.2986885,34.3309414 13.3466667,34.5566667 C13.4048836,34.7789087 13.3575497,35.015578 13.2183333,35.1983333 C12.7633333,35.8283333 12.32,36.4583333 11.9,37.1 C11.7538509,37.3253567 11.5035985,37.4614588 11.235,37.4616667 L11.2116667,37.4033333 Z M14.9333333,32.3983333 C14.5295149,32.4061185 14.1883092,32.1005612 14.1516667,31.6983333 C14.1280834,31.4900393 14.1866812,31.2807614 14.315,31.115 C14.8166667,30.5083333 15.3416667,29.9483333 15.8783333,29.3183333 C16.1785803,29.0202498 16.6630864,29.0202498 16.9633333,29.3183333 C17.1188617,29.4477576 17.2162187,29.6339688 17.233747,29.8355437 C17.2512752,30.0371187 17.187521,30.2373396 17.0566667,30.3916667 C16.555,30.9866667 16.0533333,31.5583333 15.5633333,32.165 C15.4462786,32.3658332 15.2447606,32.503037 15.015,32.5383333 L14.9333333,32.3983333 Z M19.0866667,27.7316667 C18.8821493,27.7312189 18.685706,27.6518057 18.5383333,27.51 C18.3915535,27.3652947 18.3089169,27.167783 18.3089169,26.9616667 C18.3089169,26.7555504 18.3915535,26.5580386 18.5383333,26.4133333 C19.0633333,25.8416667 19.6116667,25.2466667 20.2066667,24.7216667 C20.5062779,24.4444789 20.9687221,24.4444789 21.2683333,24.7216667 C21.5400167,25.0234122 21.5400167,25.4815878 21.2683333,25.7833333 L19.635,27.4516667 C19.5243349,27.6240903 19.3467238,27.7424977 19.145,27.7783333 L19.0866667,27.7316667 Z M23.555,23.3333333 C23.3357975,23.332069 23.1260336,23.2439682 22.9716667,23.0883333 C22.8337286,22.930821 22.7625862,22.7257636 22.7733333,22.5166667 C22.784813,22.3109412 22.8770563,22.1180687 23.03,21.98 C23.6133333,21.4433333 24.1966667,20.9183333 24.7916667,20.4166667 C25.0026457,20.2236394 25.3001896,20.1570251 25.5733333,20.2416667 C25.8424494,20.3380678 26.0415713,20.5681642 26.0983333,20.8483333 C26.143493,21.1292134 26.037046,21.413072 25.8183333,21.595 C25.235,22.0966667 24.6516667,22.61 24.08,23.1583333 C23.9653462,23.2959678 23.8102136,23.3939463 23.6366667,23.4383333 L23.555,23.3333333 Z M28.3033333,19.2733333 C28.0683137,19.2715008 27.8478734,19.1591195 27.7083333,18.97 C27.5795023,18.8108184 27.5193872,18.6068746 27.5412807,18.4032649 C27.5631742,18.1996553 27.6652727,18.0131538 27.825,17.885 C28.4316667,17.3833333 29.05,16.8933333 29.6683333,16.415 C29.8892426,16.244108 30.1845409,16.2040509 30.4429924,16.3099178 C30.7014438,16.4157848 30.8837835,16.6514922 30.9213257,16.9282512 C30.9588679,17.2050102 30.8459092,17.4807746 30.625,17.6516667 L28.7933333,19.0866667 C28.6949457,19.2280844 28.550683,19.3311292 28.385,19.3783333 L28.3033333,19.2733333 Z M33.2733333,15.4583333 C32.9368537,15.4550353 32.6402456,15.2367693 32.5370178,14.9164984 C32.43379,14.5962275 32.5471116,14.2458354 32.8183333,14.0466667 C33.4483333,13.58 34.09,13.125 34.7316667,12.67 C35.0860494,12.4219322 35.574432,12.5081174 35.8224999,12.8625001 C36.0705678,13.2168827 35.9843827,13.7052654 35.63,13.9533333 C35,14.385 34.37,14.84 33.74,15.3066667 C33.6405104,15.4291159 33.5062953,15.5185927 33.355,15.5633333 L33.2733333,15.4583333 Z M38.4066667,11.8766667 C38.0584664,11.8878914 37.7461085,11.6639261 37.6449995,11.3305398 C37.5438906,10.9971535 37.679223,10.6374132 37.975,10.4533333 L39.9583333,9.15833333 C40.197999,9.00202964 40.5028462,8.98545918 40.758042,9.11486389 C41.0132378,9.24426859 41.1800119,9.49998882 41.195542,9.78569722 C41.2110722,10.0714056 41.072999,10.3436963 40.8333333,10.5 L38.8733333,11.7716667 C38.779409,11.8790902 38.6586183,11.9596173 38.5233333,12.005 L38.4066667,11.8766667 Z M43.6916667,8.51666667 C43.3426644,8.5155567 43.0366835,8.28322004 42.9418785,7.94733941 C42.8470735,7.61145877 42.9864177,7.25342549 43.2833333,7.07 L45.3016667,5.90333333 C45.6676615,5.73974799 46.0981819,5.87491136 46.305,6.21833333 C46.5062917,6.56661182 46.4103882,7.01079636 46.0833333,7.245 L44.0766667,8.41166667 C44.0061077,8.52345429 43.9048514,8.61255979 43.785,8.66833333 L43.6916667,8.51666667 Z M49.1866667,5.46 C48.8165085,5.47855043 48.4842074,5.23460603 48.390999,4.87589526 C48.2977907,4.51718449 48.4693012,4.14232843 48.8016667,3.97833333 L50.855,2.81166667 C51.1010861,2.67231459 51.4022472,2.67231459 51.6483333,2.81166667 C51.8897054,2.95655024 52.0362185,3.21849797 52.0333333,3.5 C52.0320364,3.78037206 51.8806763,4.03857449 51.6366667,4.17666667 L49.595,5.34333333 C49.4729397,5.42382387 49.3324368,5.47199631 49.1866667,5.48333333 L49.1866667,5.46 Z M54.6583333,2.46166667 C54.2996462,2.46301504 53.9860724,2.22006883 53.8977795,1.87241578 C53.8094867,1.52476273 53.9691364,1.16163276 54.285,0.991666667 C54.7492836,0.761564303 55.1975226,0.500416368 55.6266667,0.21 C55.8508138,0.0404835883 56.1487071,0.00433945397 56.4068893,0.115333657 C56.6650714,0.22632786 56.8437987,0.467374303 56.875,0.746666667 C56.8992661,1.02225691 56.7803143,1.29099999 56.56,1.45833333 C56.058543,1.78380505 55.536315,2.07609682 54.9966667,2.33333333 C54.8981757,2.41110507 54.7819233,2.46321821 54.6583333,2.485 L54.6583333,2.46166667 Z" id="形状"></path>
                </g>
            </g>
        </g>
    </g>
</svg>